<svg width="640" height="140" viewBox="0 0 640 140" xmlns="http://www.w3.org/2000/svg" role="img" aria-label="MeridianCogent">
  <title>MeridianCogent</title>
  <rect x="0" y="10" width="120" height="120" rx="24" fill="#E8743B"/>
  <path d="M 28 96 L 47 58 L 60 81 L 73 49 L 92 96"
        fill="none" stroke="#2B2F3A" stroke-width="8"
        stroke-linecap="round" stroke-linejoin="round"/>
  <g fill="#FFFFFF" transform="translate(150 82) scale(0.0224609375 -0.0224609375)">
    <path transform="translate(0 0)" d="M124 0Q107 0 98.5 20Q90 40 90 51Q90 84 123 88Q163 91 203 97Q243 103 270.5 122.5Q298 142 298 184L298 1234Q298 1277 268 1296.5Q238 1316 196 1322.5Q154 1329 117 1331Q96 1333 88.5 1339.5Q81 1346 81 1368Q81 1379 89.5 1398.5Q98 1418 115 1419L612 1419L969 366L981 366L1276 1246Q1296 1306 1309 1345.5Q1322 1385 1329 1419L1773 1419Q1790 1419 1798.5 1399Q1807 1379 1807 1368Q1807 1335 1774 1331Q1726 1327 1677.5 1313.5Q1629 1300 1629 1267L1628 185Q1628 142 1654 123Q1680 104 1716.5 98Q1753 92 1783 88Q1804 86 1811.5 80Q1819 74 1819 51Q1819 40 1810.5 20Q1802 0 1785 0L1272 0Q1255 0 1246.5 20Q1238 40 1238 51Q1238 84 1271 88Q1303 91 1338.5 97.5Q1374 104 1399 117Q1424 130 1424 152L1425 1281L1388 1281L959 0L908 0L432 1281L395 1281L395 185Q395 142 428 122.5Q461 103 506 97Q551 91 587 88Q608 86 615.5 80Q623 74 623 51Q623 40 614.5 20Q606 0 589 0Z"/>
    <path transform="translate(1899.0000000000002 0)" d="M532 -29Q303 -29 186 110.5Q69 250 69 500Q69 667 132 781.5Q195 896 298 955Q401 1014 520 1014Q646 1014 725.5 970.5Q805 927 848.5 849.5Q892 772 910 669Q917 631 919.5 589Q922 547 922 503L284 503Q285 345 326 251Q367 157 429.5 116Q492 75 558 75Q634 75 697 109.5Q760 144 792 208Q795 214 798 220Q801 226 811 224L861 201Q872 197 872 189Q872 185 870 180.5Q868 176 866 173Q822 85 741 28Q660 -29 532 -29ZM286 589L700 595Q700 769 648 843.5Q596 918 519 918Q448 918 398 895Q348 872 320 801.5Q292 731 286 589Z"/>
    <path transform="translate(2889.0000000000005 0)" d="M119 0Q102 0 93.5 15Q85 30 85 41Q85 74 118 78Q159 82 196.5 95.5Q234 109 234 142L234 778Q234 840 208 863Q182 886 147 891Q112 896 85 903Q75 908 68 916Q61 924 61 943Q61 955 67.5 970Q74 985 85 986Q185 992 261 997Q337 1002 380 1003Q388 1003 398 995Q408 987 410 963L410 818Q441 867 477.5 911.5Q514 956 560 985Q606 1014 666 1014Q730 1014 762 993Q794 972 805 940Q816 908 816 873Q816 835 792.5 810.5Q769 786 738.5 774Q708 762 688 762L593 882Q563 882 529.5 859Q496 836 467 798Q438 760 420 716L420 175Q420 132 448.5 112.5Q477 93 517.5 87Q558 81 592 78Q613 76 620.5 70Q628 64 628 41Q628 30 619.5 15Q611 0 594 0Z"/>
    <path transform="translate(3728.000000000001 0)" d="M104 0Q87 0 78.5 15Q70 30 70 41Q70 74 103 78Q140 83 179 96Q218 109 218 142L219 778Q219 840 193 863Q167 886 132 891Q97 896 70 903Q60 908 53 916Q46 924 46 943Q46 955 52 970.5Q58 986 70 987Q170 993 251 995Q332 997 375 997Q383 997 393 989Q403 981 405 957L405 175Q405 132 425.5 112.5Q446 93 474.5 87Q503 81 527 78Q548 76 555.5 70Q563 64 563 41Q563 30 554.5 15Q546 0 529 0ZM309 1173Q254 1173 221 1213.5Q188 1254 188 1312Q188 1371 221 1411Q254 1451 309 1451Q364 1451 397 1411Q430 1371 430 1312Q430 1254 397 1213.5Q364 1173 309 1173Z"/>
    <path transform="translate(4328.000000000001 0)" d="M525 -29Q368 -29 272.5 45Q177 119 134.5 238Q92 357 92 492Q92 627 140 746Q188 865 288.5 939.5Q389 1014 547 1014Q629 1014 701 996.5Q773 979 819 934L809 1104L809 1339Q809 1386 787.5 1409.5Q766 1433 734.5 1442.5Q703 1452 671.5 1455.5Q640 1459 620 1464Q610 1469 603 1477Q596 1485 596 1504Q596 1516 602 1532Q608 1548 620 1549Q687 1553 755.5 1555Q824 1557 880.5 1557.5Q937 1558 965 1558Q973 1558 983 1550Q993 1542 995 1518L995 175Q995 111 1032.5 96.5Q1070 82 1107 78Q1128 76 1135.5 70Q1143 64 1143 41Q1143 30 1134.5 15Q1126 0 1109 0L885 0Q829 0 818.5 25Q808 50 809 97Q757 40 676.5 5.5Q596 -29 525 -29ZM588 66Q646 66 711 99Q776 132 809 176L809 814Q781 867 724 893Q667 919 584 919Q473 919 412.5 863Q352 807 329 710.5Q306 614 306 492Q306 373 330 276Q354 179 415 122.5Q476 66 588 66Z"/>
    <path transform="translate(5504.000000000001 0)" d="M104 0Q87 0 78.5 15Q70 30 70 41Q70 74 103 78Q140 83 179 96Q218 109 218 142L219 778Q219 840 193 863Q167 886 132 891Q97 896 70 903Q60 908 53 916Q46 924 46 943Q46 955 52 970.5Q58 986 70 987Q170 993 251 995Q332 997 375 997Q383 997 393 989Q403 981 405 957L405 175Q405 132 425.5 112.5Q446 93 474.5 87Q503 81 527 78Q548 76 555.5 70Q563 64 563 41Q563 30 554.5 15Q546 0 529 0ZM309 1173Q254 1173 221 1213.5Q188 1254 188 1312Q188 1371 221 1411Q254 1451 309 1451Q364 1451 397 1411Q430 1371 430 1312Q430 1254 397 1213.5Q364 1173 309 1173Z"/>
    <path transform="translate(6104.000000000001 0)" d="M97 243Q97 342 149.5 406.5Q202 471 288 509.5Q374 548 477 568.5Q580 589 680 599L680 753Q680 790 661.5 829.5Q643 869 598.5 896.5Q554 924 474 924Q431 924 410 918.5Q389 913 376 907L256 665Q200 665 154.5 690.5Q109 716 109 781Q109 826 137.5 867.5Q166 909 219.5 942Q273 975 348.5 994.5Q424 1014 518 1014Q631 1014 700.5 986Q770 958 806.5 911Q843 864 856 806.5Q869 749 869 689L869 201Q869 162 880 128Q891 94 907 94Q921 94 931.5 95.5Q942 97 960 102Q977 107 988.5 90.5Q1000 74 1000 59Q1000 48 994 43Q968 24 916 2.5Q864 -19 802 -19Q750 -19 724 3Q698 25 698 99L698 119Q633 51 557.5 15Q482 -21 377 -21Q317 -21 252 5Q187 31 142 89Q97 147 97 243ZM306 248Q306 185 344.5 137.5Q383 90 449 90Q532 90 590.5 118Q649 146 679 176L679 528Q571 512 487 486.5Q403 461 354.5 406.5Q306 352 306 248Z"/>
    <path transform="translate(7136.000000000001 0)" d="M103 0Q86 0 77.5 15Q69 30 69 41Q69 74 102 78Q139 83 178.5 96Q218 109 218 142L218 778Q218 840 191 863Q164 886 129 891Q94 896 69 903Q59 908 52 916Q45 924 45 943Q45 955 51 971Q57 987 69 988Q166 994 244.5 995.5Q323 997 364 997Q372 997 382 989Q392 981 394 957L394 845Q412 863 467.5 903.5Q523 944 604 979Q685 1014 779 1014Q844 1014 898.5 995.5Q953 977 986 923.5Q1019 870 1019 766L1019 175Q1019 127 1043 108Q1067 89 1099 85.5Q1131 82 1156 78Q1173 76 1181 69.5Q1189 63 1189 41Q1189 30 1180.5 15Q1172 0 1155 0L728 0Q711 0 702.5 15Q694 30 694 41Q694 57 700 67Q706 77 725 78Q757 80 794 97Q831 114 831 142L831 795Q831 812 823.5 836Q816 860 788.5 878Q761 896 702 896Q640 896 582 875.5Q524 855 478 826Q432 797 404 771L404 175Q404 111 441.5 96.5Q479 82 516 78Q537 76 544.5 70Q552 64 552 41Q552 30 543.5 15Q535 0 518 0Z"/>
  </g>
  <g fill="#E8743B" transform="translate(330.5 82) scale(0.0224609375 -0.0224609375)">
    <path transform="translate(0.0000 0)" d="M1196 110Q1031 -41 774 -41Q456 -41 274 163Q92 368 92 725Q92 1111 299 1320Q479 1502 757 1502Q1129 1502 1301 1258Q1396 1121 1403 983H1095Q1065 1089 1018 1143Q934 1239 769 1239Q601 1239 504.0 1103.5Q407 968 407 720Q407 472 509.5 348.5Q612 225 770 225Q932 225 1017 331Q1064 388 1095 502H1400Q1360 261 1196 110Z"/>
    <path transform="translate(1478.9565 0)" d="M1042 952Q1180 779 1180 543Q1180 303 1042.0 132.5Q904 -38 623 -38Q342 -38 204.0 132.5Q66 303 66 543Q66 779 204.0 952.0Q342 1125 623 1125Q904 1125 1042 952ZM622 884Q497 884 429.5 795.5Q362 707 362 543Q362 379 429.5 290.0Q497 201 622 201Q747 201 814.0 290.0Q881 379 881 543Q881 707 814.0 795.5Q747 884 622 884Z"/>
    <path transform="translate(2729.7391 0)" d="M441 -191Q487 -230 596 -230Q750 -230 802 -127Q836 -61 836 95V165Q795 95 748 60Q663 -5 527 -5Q317 -5 191.5 142.5Q66 290 66 542Q66 785 187.0 950.5Q308 1116 530 1116Q612 1116 673 1091Q777 1048 841 933V1090H1118V56Q1118 -155 1047 -262Q925 -446 579 -446Q370 -446 238.0 -364.0Q106 -282 92 -119H402Q414 -169 441 -191ZM393 372Q451 234 601 234Q701 234 770.0 309.5Q839 385 839 550Q839 705 773.5 786.0Q708 867 598 867Q448 867 391 726Q361 651 361 541Q361 446 393 372Z"/>
    <path transform="translate(3980.8696 0)" d="M1066 320Q1055 223 965 123Q825 -36 573 -36Q365 -36 206.0 98.0Q47 232 47 534Q47 817 190.5 968.0Q334 1119 563 1119Q699 1119 808.0 1068.0Q917 1017 988 907Q1052 810 1071 682Q1082 607 1080 466H334Q340 302 437 236Q496 195 579 195Q667 195 722 245Q752 272 775 320ZM784 654Q777 767 715.5 825.5Q654 884 563 884Q464 884 409.5 822.0Q355 760 341 654Z"/>
    <path transform="translate(5120.0000 0)" d="M646 879Q501 879 447 756Q419 691 419 590V0H135V1088H410V929Q465 1013 514 1050Q602 1116 737 1116Q906 1116 1013.5 1027.5Q1121 939 1121 734V0H829V663Q829 749 806 795Q764 879 646 879Z"/>
    <path transform="translate(6370.7826 0)" d="M632 203V-10L497 -15Q295 -22 221 55Q173 104 173 206V877H21V1080H173V1384H455V1080H632V877H455V301Q455 234 472.0 217.5Q489 201 576 201Q589 201 603.5 201.5Q618 202 632 203Z"/>
  </g>
</svg>
